<mxfile host="Electron" modified="2024-01-12T11:06:49.330Z" agent="Mozilla/5.0 (Windows NT 10.0; Win64; x64) AppleWebKit/537.36 (KHTML, like Gecko) draw.io/22.1.16 Chrome/120.0.6099.109 Electron/28.1.0 Safari/537.36" etag="vwSbSFPpBwO-LrOfORl7" version="22.1.16" type="device">
  <diagram name="Page-1" id="BQN5zdJiaoVpTf91qJQA">
    <mxGraphModel dx="1276" dy="614" grid="1" gridSize="10" guides="1" tooltips="1" connect="1" arrows="1" fold="1" page="1" pageScale="1" pageWidth="827" pageHeight="1169" math="0" shadow="0">
      <root>
        <mxCell id="0" />
        <mxCell id="1" parent="0" />
        <mxCell id="0pIJ--ekKyP80Sn3UjQH-1" value="USER &lt;br&gt;(ADMIN OU USER)" style="ellipse;shape=cloud;whiteSpace=wrap;html=1;" parent="1" vertex="1">
          <mxGeometry x="295" y="60" width="170" height="80" as="geometry" />
        </mxCell>
        <mxCell id="0pIJ--ekKyP80Sn3UjQH-3" value="PAS DE CONTROLER PR CET APPLI, MAIS EFFECTUÉ VIA LES T.U. = MAIS VU AVEC TUTEUR, IL Y A BIEN CONTROLLER" style="rounded=0;whiteSpace=wrap;html=1;" parent="1" vertex="1">
          <mxGeometry x="680" y="10" width="120" height="120" as="geometry" />
        </mxCell>
        <mxCell id="0pIJ--ekKyP80Sn3UjQH-4" value="Ds domain ou model se trouve les objets metiers accessibles aux autres couches: prdt, contrat, etc." style="rounded=0;whiteSpace=wrap;html=1;" parent="1" vertex="1">
          <mxGeometry x="680" y="140" width="120" height="90" as="geometry" />
        </mxCell>
        <mxCell id="0pIJ--ekKyP80Sn3UjQH-5" value="LES TESTS UNITAIRES de chq repo et service assurent le contrôle en l&#39;absence de framework, dc en l&#39;absence de controller" style="rounded=0;whiteSpace=wrap;html=1;" parent="1" vertex="1">
          <mxGeometry y="260" width="220" height="60" as="geometry" />
        </mxCell>
        <mxCell id="0pIJ--ekKyP80Sn3UjQH-10" value="Couche métier:&lt;br&gt;LES SERVICES:&lt;br&gt;Admin, Product, User, et leurs implementations" style="rounded=0;whiteSpace=wrap;html=1;" parent="1" vertex="1">
          <mxGeometry x="270" y="190" width="220" height="60" as="geometry" />
        </mxCell>
        <mxCell id="0pIJ--ekKyP80Sn3UjQH-11" value="Couche d&#39;accès aux données (=persistence):&lt;br&gt;LES REPOSITORY:&lt;br&gt;Product, User et leurs implementations" style="rounded=0;whiteSpace=wrap;html=1;" parent="1" vertex="1">
          <mxGeometry x="270" y="260" width="220" height="60" as="geometry" />
        </mxCell>
        <mxCell id="0pIJ--ekKyP80Sn3UjQH-12" value="DATA: &lt;br&gt;products et users : &lt;br&gt;alimentés via les tests unitaires lors du new" style="rounded=0;whiteSpace=wrap;html=1;" parent="1" vertex="1">
          <mxGeometry x="270" y="330" width="220" height="60" as="geometry" />
        </mxCell>
        <mxCell id="0pIJ--ekKyP80Sn3UjQH-13" value="OBJETS METIERS: présents dans model: ici:&lt;br&gt;A REPRECISER!" style="rounded=0;whiteSpace=wrap;html=1;" parent="1" vertex="1">
          <mxGeometry x="540" y="260" width="120" height="60" as="geometry" />
        </mxCell>
        <mxCell id="0pIJ--ekKyP80Sn3UjQH-14" value="" style="endArrow=none;dashed=1;html=1;dashPattern=1 3;strokeWidth=2;rounded=0;exitX=0.324;exitY=1.007;exitDx=0;exitDy=0;exitPerimeter=0;entryX=0;entryY=1;entryDx=0;entryDy=0;" parent="1" target="0pIJ--ekKyP80Sn3UjQH-10" edge="1">
          <mxGeometry width="50" height="50" relative="1" as="geometry">
            <mxPoint x="226.27999999999997" y="259.99999999999994" as="sourcePoint" />
            <mxPoint x="295" y="219.57999999999998" as="targetPoint" />
          </mxGeometry>
        </mxCell>
        <mxCell id="0pIJ--ekKyP80Sn3UjQH-15" value="" style="endArrow=none;dashed=1;html=1;dashPattern=1 3;strokeWidth=2;rounded=0;exitX=0.324;exitY=1.007;exitDx=0;exitDy=0;exitPerimeter=0;entryX=0;entryY=0;entryDx=0;entryDy=0;" parent="1" target="0pIJ--ekKyP80Sn3UjQH-12" edge="1">
          <mxGeometry width="50" height="50" relative="1" as="geometry">
            <mxPoint x="226.27999999999997" y="319.99999999999994" as="sourcePoint" />
            <mxPoint x="270" y="290" as="targetPoint" />
          </mxGeometry>
        </mxCell>
        <mxCell id="0pIJ--ekKyP80Sn3UjQH-16" value="" style="endArrow=none;dashed=1;html=1;dashPattern=1 3;strokeWidth=2;rounded=0;entryX=0;entryY=0.5;entryDx=0;entryDy=0;exitX=1;exitY=0.5;exitDx=0;exitDy=0;" parent="1" source="0pIJ--ekKyP80Sn3UjQH-5" target="0pIJ--ekKyP80Sn3UjQH-11" edge="1">
          <mxGeometry width="50" height="50" relative="1" as="geometry">
            <mxPoint x="230" y="290" as="sourcePoint" />
            <mxPoint x="263.72" y="260" as="targetPoint" />
          </mxGeometry>
        </mxCell>
        <mxCell id="0pIJ--ekKyP80Sn3UjQH-18" value="" style="endArrow=none;dashed=1;html=1;dashPattern=1 3;strokeWidth=2;rounded=0;entryX=0;entryY=0.5;entryDx=0;entryDy=0;exitX=1;exitY=0.5;exitDx=0;exitDy=0;" parent="1" edge="1">
          <mxGeometry width="50" height="50" relative="1" as="geometry">
            <mxPoint x="490" y="289.5" as="sourcePoint" />
            <mxPoint x="540" y="289.5" as="targetPoint" />
          </mxGeometry>
        </mxCell>
        <mxCell id="0pIJ--ekKyP80Sn3UjQH-19" value="" style="endArrow=none;dashed=1;html=1;dashPattern=1 3;strokeWidth=2;rounded=0;exitX=1;exitY=0;exitDx=0;exitDy=0;" parent="1" source="0pIJ--ekKyP80Sn3UjQH-12" edge="1">
          <mxGeometry width="50" height="50" relative="1" as="geometry">
            <mxPoint x="490" y="370" as="sourcePoint" />
            <mxPoint x="540" y="320" as="targetPoint" />
          </mxGeometry>
        </mxCell>
        <mxCell id="0pIJ--ekKyP80Sn3UjQH-21" value="" style="endArrow=none;dashed=1;html=1;dashPattern=1 3;strokeWidth=2;rounded=0;" parent="1" edge="1">
          <mxGeometry width="50" height="50" relative="1" as="geometry">
            <mxPoint x="490" y="230" as="sourcePoint" />
            <mxPoint x="540" y="260" as="targetPoint" />
          </mxGeometry>
        </mxCell>
        <mxCell id="0pIJ--ekKyP80Sn3UjQH-23" value="" style="endArrow=classic;startArrow=classic;html=1;rounded=0;exitX=0.5;exitY=0.875;exitDx=0;exitDy=0;exitPerimeter=0;" parent="1" source="0pIJ--ekKyP80Sn3UjQH-6" target="0pIJ--ekKyP80Sn3UjQH-10" edge="1">
          <mxGeometry width="50" height="50" relative="1" as="geometry">
            <mxPoint x="380" y="140" as="sourcePoint" />
            <mxPoint x="410" y="190" as="targetPoint" />
          </mxGeometry>
        </mxCell>
        <mxCell id="_pcOqBdAaDPOKQbkHISC-1" value="" style="endArrow=classic;startArrow=classic;html=1;rounded=0;exitX=0.5;exitY=0.875;exitDx=0;exitDy=0;exitPerimeter=0;" parent="1" source="0pIJ--ekKyP80Sn3UjQH-1" target="0pIJ--ekKyP80Sn3UjQH-6" edge="1">
          <mxGeometry width="50" height="50" relative="1" as="geometry">
            <mxPoint x="380" y="130" as="sourcePoint" />
            <mxPoint x="380" y="190" as="targetPoint" />
          </mxGeometry>
        </mxCell>
        <mxCell id="0pIJ--ekKyP80Sn3UjQH-6" value="Couche présentation:&lt;br&gt;CONTROLLER" style="rounded=0;whiteSpace=wrap;html=1;" parent="1" vertex="1">
          <mxGeometry x="270" y="150" width="220" height="30" as="geometry" />
        </mxCell>
      </root>
    </mxGraphModel>
  </diagram>
</mxfile>
